/* XPM */
static char * tepiktimer_xpm[] = {
"22 23 8 1",
" 	c None",
".	c #000000",
"+	c #7F7F7F",
"@	c #FFFFFF",
"#	c #BFBFBF",
"$	c #FF0000",
"%	c #101010",
"&	c #FEF900",
"        ......        ",
"        +@..@+        ",
"   ..   ......   ..   ",
"  .#@...######...@#.  ",
"  .+..++@@$$@@++..+.  ",
"   ..+@@@@$$@@@@+..   ",
"   .+@.@@@@@@@@@@+.   ",
"   .+@@.@@@@@@.@@+.   ",
"  .+@@@@.@@@@.@@@@+.  ",
"  .+@@@@@.@@.@@@@@+.  ",
"  .#$$@@@@..@@@@$$#.  ",
"  .#$$@@@@..@@@@$$#.  ",
"  .+@@@@@@@@@@@@@@+.  ",
"  .+@@@@@@@@@@@@@@+.  ",
"%%%%%%%%%%%%%%%%%%%%%%",
"%&.&&.&&.&&.&&.&&.&&&%",
"%&.&&.&&.&&.&&.&&.&&&%",
"%&.&&.&&.&&.&&.&&.&&&%",
"%&&&&.&&&&&.&&&&&.&&&%",
"%&&&&.&&&&&.&&&&&.&&&%",
"%&&&&&&&&&&&&&&&&&&&&%",
"%%%%%%%%%%%%%%%%%%%%%%",
"                      "};
